<svg width="1597" height="952" viewBox="0 0 1597 952" fill="none" xmlns="http://www.w3.org/2000/svg">
<path d="M-402.942 1087.8C-159.653 1037.83 78.9884 1067.4 318.688 1121.51C424.131 1145.3 529.863 1158.32 636.236 1131.99C691.457 1118.33 743.634 1096.04 794.016 1069.87C869.429 1030.71 936.157 965.289 1011.83 930.299C1215.21 836.236 1360.33 1073.43 1541.25 1112.81C1623.59 1130.74 1678.36 1091.36 1754.29 1072.02C1844.54 1049.06 1923.22 1086.1 2000.78 1129.94" stroke="url(#paint0_linear_104_13757)" stroke-miterlimit="10"/>
<path d="M-402.942 1043.77C-164.461 987.097 54.278 1034.4 285.356 1097.36C392.658 1126.57 499.896 1144.24 609.154 1113.94C666.971 1097.9 720.783 1071.48 772.447 1041.36C853.404 994.185 923.24 918.979 1004.74 876.196C1218.8 763.852 1345.75 1039.31 1530.74 1083.18C1617.69 1103.8 1668.62 1056.53 1746.05 1032.12C1839.76 1002.59 1923.06 1051.66 2000.75 1100.24" stroke="url(#paint1_linear_104_13757)" stroke-miterlimit="10"/>
<path d="M-402.942 999.252C-175.198 936.457 18.2222 998.482 234.045 1069.49C341.09 1104.7 447.848 1131.06 559.413 1102.2C729.148 1058.29 839.783 924.687 982.436 834.664C1214.09 688.517 1317.32 1013.97 1519.43 1055.41C1606.92 1073.37 1656.41 1017.53 1733.74 990.561C1831.69 956.405 1922.1 1017.92 2000.78 1070.48" stroke="url(#paint2_linear_104_13757)" stroke-miterlimit="10"/>
<path d="M-402.942 954.962C-181.96 883.54 -12.2891 963.813 190.649 1043.38C300.227 1086.32 411.055 1121.15 527.812 1085.65C700.912 1033.02 813.727 889.666 956.829 789.957C1200.12 620.463 1279.99 982.639 1488.95 1025.23C1577.89 1043.35 1632.79 981.388 1708.94 951.145C1816.5 908.427 1915.24 981.132 2000.78 1040.88" stroke="url(#paint3_linear_104_13757)" stroke-miterlimit="10"/>
<path d="M-402.942 911.474C-303.941 873.726 -207.311 865.035 -104.913 895.503C-10.3661 923.629 70.8157 980.426 160.042 1020.61C265.421 1068.08 373.685 1109.7 489 1071.89C672.164 1011.82 782.414 848.711 931.894 740.504C1173.93 565.269 1244.35 938.798 1443.05 989.181C1543.66 1014.68 1601.96 940.755 1687.5 906.952C1803.1 861.251 1911.11 946.559 2000.78 1011.18" stroke="url(#paint4_linear_104_13757)" stroke-miterlimit="10"/>
<path d="M-402.942 869.493C-313.844 829.116 -225.067 816.544 -130.969 848.102C-38.2814 879.179 37.0033 944.603 122.384 989.887C221.705 1042.58 323.912 1095.46 438.201 1061.73C629.826 1005.22 750.108 822.028 898.819 703.494C1152.4 501.352 1194.48 907.85 1402.22 954.641C1508.82 978.662 1575.19 892.937 1666.73 859.519C1789.86 814.588 1907.97 912.757 2000.75 981.452" stroke="url(#paint5_linear_104_13757)" stroke-miterlimit="10"/>
<path d="M-402.942 829.629C-197.023 718.985 -73.3437 849.866 94.3722 955.636C189.624 1015.7 292.183 1085.2 408.908 1046.52C597.936 983.89 722.289 795.57 865.583 670.333C958.079 589.515 1046.63 570.753 1125.86 672.995C1194.57 761.639 1238.71 889.313 1360.97 915.002C1467.44 937.355 1542.63 849.609 1633.97 813.85C1768.39 761.19 1901.46 876.324 2000.78 951.787" stroke="url(#paint6_linear_104_13757)" stroke-miterlimit="10"/>
<path d="M-402.942 792.555C-203.497 667.126 -79.2088 797.366 78.091 915.579C161.997 978.63 256.992 1065.96 370.352 1036.36C439.355 1018.33 500.538 967.117 553.227 921.897C654.504 835.017 738.57 732.519 834.719 640.732C926.894 552.729 1017.75 518.093 1096.79 634.189C1155.7 720.717 1200.89 854.388 1319.31 873.278C1431.9 891.237 1514.3 794.576 1613.05 761.158C1755.47 712.923 1899.06 842.554 2000.78 922.025" stroke="url(#paint7_linear_104_13757)" stroke-miterlimit="10"/>
<path d="M-402.942 758.945C-325.19 702.981 -239.393 667.864 -144.654 701.955C-60.2995 732.326 5.27412 802.882 70.1106 861.668C143.184 927.926 235.487 1045.56 347.661 1022.44C410.798 1009.42 466.341 961.055 513.518 919.876C617.647 828.955 708.924 723.635 802.542 622.323C890.165 527.457 987.276 459.211 1069 591.246C1124.03 680.115 1166.75 820.681 1291.56 825.62C1402.32 830.014 1485.55 741.498 1585.39 708.85C1738.52 658.788 1893.86 805.929 2000.81 892.359" stroke="url(#paint8_linear_104_13757)" stroke-miterlimit="10"/>
<path d="M-402.942 728.093C-323.139 665.875 -234.233 624.568 -133.437 660.423C-48.377 690.666 22.0682 759.619 84.9496 821.611C150.331 886.106 238.083 1012.79 345.129 991.17C405.03 979.079 457.719 930.62 501.884 891.301C602.872 801.343 693.06 698.78 784.305 599.264C867.859 508.151 965.995 425.088 1048.88 556.514C1103.1 642.496 1144.29 779.727 1266.75 781.427C1376.55 782.934 1468.12 703.174 1570.64 675.85C1730.22 633.292 1886.17 772.8 2000.78 861.925" stroke="url(#paint9_linear_104_13757)" stroke-miterlimit="10"/>
<path d="M-402.942 693.713C-314.902 624.408 -220.964 587.141 -113.342 635.248C-24.3397 675.048 53.605 750.35 122.48 817.025C184.272 876.869 260.838 977.86 358.269 946.399C417.721 927.189 469.417 875.875 513.774 834.632C602.68 751.986 685.304 662.476 769.178 574.794C849.11 491.185 946.092 409.854 1032.02 526.431C1093.14 609.367 1132.04 742.012 1254.06 748.073C1362.74 753.461 1467.83 681.718 1572.6 662.476C1731.05 633.356 1878.42 742.653 2000.81 826.871" stroke="url(#paint10_linear_104_13757)" stroke-miterlimit="10"/>
<path d="M-402.942 655.517C-308.268 583.229 -211.798 551.447 -101.195 608.533C-16.4555 652.245 61.7457 722.641 131.454 786.879C196.418 846.755 276.19 949.927 374.358 904.258C425.605 880.429 467.783 835.049 508.037 796.66C592.712 715.842 672.805 630.149 755.493 547.342C841.033 461.68 937.951 395.262 1026.7 509.145C1087.78 587.558 1131.79 710.999 1247.62 716.13C1354.18 720.877 1460.04 669.788 1564.04 652.791C1724.58 626.557 1867.1 708.466 2000.81 787.392" stroke="url(#paint11_linear_104_13757)" stroke-miterlimit="10"/>
<path d="M-402.942 614.209C-293.749 535.379 -189.588 517.548 -73.3117 590.894C10.2418 643.586 87.4814 714.976 162.253 779.342C224.686 833.093 294.907 917.471 382.274 868.595C429.067 842.425 468.007 795.762 505.281 758.015C584.636 677.613 661.907 595.256 743.57 517.163C828.181 436.248 925.035 377.847 1015.09 480.089C1082.33 556.418 1128.9 678.159 1244.44 689.191C1346.26 698.909 1457.22 659.077 1557.37 643.554C1717.43 618.763 1858.26 675.369 2000.75 744.481" stroke="url(#paint12_linear_104_13757)" stroke-miterlimit="10"/>
<path d="M-402.942 570.561C-284.647 490.929 -175.871 482.398 -57.3189 565.718C32.1317 628.577 112.512 708.016 197.572 776.905C256.063 824.241 320.771 889.153 393.876 834.76C442.207 798.809 481.66 744.641 521.786 700.512C589.636 625.947 659.183 552.377 733.827 484.579C825.297 401.483 924.491 362.229 1016.6 462.386C1084.03 535.7 1135.7 650.129 1246.49 662.54C1351.36 674.278 1464.75 646.729 1568.62 632.458C1721.37 611.483 1857.33 645.639 2000.78 698.78" stroke="url(#paint13_linear_104_13757)" stroke-miterlimit="10"/>
<path d="M-402.942 525.245C-268.077 440.866 -153.436 449.846 -29.6279 548.753C64.3096 623.799 144.37 711.127 242.281 781.94C309.457 830.495 357.885 857.916 419.196 790.246C523.389 675.24 607.776 544.167 729.853 445.004C819.464 372.235 918.048 345.103 1007.34 429.802C1082.78 501.352 1133.55 611.195 1242.45 636.98C1342.99 660.744 1469.17 637.3 1570.26 623.51C1719.45 603.145 1854.09 615.107 2000.81 651.283" stroke="url(#paint14_linear_104_13757)" stroke-miterlimit="10"/>
<path d="M-402.942 479.031C-251.924 390.868 -128.95 419.507 -1.61653 532.365C89.5968 613.215 165.458 706.83 268.979 773.249C344.968 822.028 384.967 830.655 436.951 752.98C519.319 629.924 602.231 504.142 722.225 413.382C819.239 339.972 917.536 323.487 1012.34 408.122C1091.28 478.614 1147.46 592.016 1259.09 616.967C1358.09 639.096 1473.63 628.577 1573.43 614.979C1718.33 595.223 1854.44 586.308 2000.81 602.632" stroke="url(#paint15_linear_104_13757)" stroke-miterlimit="10"/>
<path d="M-402.942 432.656C-238.335 341.735 -109.56 386.538 20.9144 510.941C113.249 598.976 189.367 706.509 303.048 768.919C387.434 815.261 417.048 791.176 457.303 711.737C521.338 585.41 602.327 457.736 720.943 375.442C821.355 305.752 922.92 303.603 1017.24 383.684C1099.51 453.567 1159.45 564.018 1269.67 594.999C1506.06 661.45 1763.33 562.126 2000.81 553.884" stroke="url(#paint16_linear_104_13757)" stroke-miterlimit="10"/>
<path d="M-402.942 386.827C-321.056 343.179 -244.072 317.265 -152.442 349.048C-76.6448 375.346 -14.5646 430.54 41.0416 486.76C132.768 579.573 211.193 704.457 333.399 759.618C425.061 800.99 446.758 745.251 477.686 667.479C528.1 540.607 604.218 410.624 723.155 336.347C982.372 174.422 1075.93 502.058 1282.16 573.094C1523.02 656.062 1765.28 551.382 2000.81 505.746" stroke="url(#paint17_linear_104_13757)" stroke-miterlimit="10"/>
<path d="M-402.942 342.281C-317.53 297.061 -238.816 271.853 -145.52 306.201C-67.2542 335 -3.98821 393.85 52.7076 453.47C141.87 547.213 234.077 709.492 367.083 746.822C460.187 772.96 474.866 685.791 498.454 615.62C539.734 492.789 610.885 357.354 729.917 292.378C977.02 157.488 1101.47 460.782 1288.03 546.508C1532.79 658.98 1769.8 543.653 2000.78 459.05" stroke="url(#paint18_linear_104_13757)" stroke-miterlimit="10"/>
<path d="M-402.942 299.787C-316.697 252.835 -239.008 227.339 -144.077 260.596C-65.3633 288.177 -1.03963 349.721 54.9191 409.693C145.716 507.028 243.051 691.917 384.229 719.498C480.186 738.259 493.647 642.335 514.607 570.304C550.599 446.735 615.404 309.953 739.788 252.482C987.244 138.15 1120.7 429.321 1303.22 523.481C1398.25 572.485 1521.29 597.597 1627.15 580.535C1761.34 558.919 1884.06 479.351 2000.81 414.793" stroke="url(#paint19_linear_104_13757)" stroke-miterlimit="10"/>
<path d="M-402.942 260.019C-311.088 206.878 -222.311 176.25 -120.617 222.175C-44.3067 256.652 16.2351 320.024 70.9438 381.535C152.927 473.707 256.255 667.896 394.165 682.456C497.973 693.424 511.082 579.99 533.324 503.405C567.714 385.031 629.633 258.127 754.275 212.458C999.871 122.435 1141.88 392.375 1319.09 497.856C1408.63 551.158 1525.68 587.655 1630.42 574.602C1770.73 557.091 1892.17 455.491 2000.75 373.55" stroke="url(#paint20_linear_104_13757)" stroke-miterlimit="10"/>
<path d="M-402.942 223.747C-316.216 168.457 -230.836 129.972 -128.373 171.375C-46.2617 204.568 19.1196 275.028 75.527 340.869C156.164 434.997 257.569 628.256 400.831 631.656C502.973 634.061 521.883 518.991 545.984 442.149C583.258 323.423 642.197 208.257 772.928 174.678C1023.27 110.344 1162.27 357.161 1341.39 475.567C1429.08 533.551 1546.03 581.369 1652.85 565.943C1792.56 545.738 1904.79 429.545 2000.78 336.347" stroke="url(#paint21_linear_104_13757)" stroke-miterlimit="10"/>
<path d="M-402.942 191.708C-323.331 133.949 -240.643 85.5536 -139.398 119.485C-60.4918 145.911 1.65253 210.63 54.7588 272.013C141.742 372.523 229.237 551.318 378.973 562.736C492.814 571.395 522.395 460.686 555.15 373.101C599.827 253.605 662.1 152.421 798.92 133.916C1041.47 101.108 1181.24 309.793 1349.76 441.155C1434.24 506.996 1548.63 570.048 1659.16 559.272C1805.79 544.968 1913.7 408.539 2000.78 303.956" stroke="url(#paint22_linear_104_13757)" stroke-miterlimit="10"/>
<path d="M-402.942 166.436C-323.716 111.114 -242.021 65.5734 -142.795 97.9008C-65.5236 123.076 -4.02027 184.941 48.445 244.465C132.96 340.292 222.411 524.251 367.852 529.286C480.314 533.166 518.806 433.49 559.124 345.873C610.821 233.593 680.785 130.806 813.47 112.878C1047.53 81.2561 1193.74 276.215 1359.85 400.906C1441.36 462.065 1556.32 524.283 1660.99 522.23C1807.33 519.344 1915.72 380.06 2000.78 278.396" stroke="url(#paint23_linear_104_13757)" stroke-miterlimit="10"/>
<path d="M-402.942 149.15C-324.966 95.752 -244.457 51.4621 -147.186 80.9032C-72.0297 103.641 -11.4238 161.561 40.2082 218.263C123.377 309.632 212.443 491.666 353.173 492.532C463.52 493.206 510.505 405.332 558.676 319.735C617.519 215.184 694.758 114.866 822.733 97.2914C1048.33 66.343 1200.73 241.193 1366.94 357.578C1447.64 414.087 1561.35 477.138 1661.22 486.054C1806.82 499.043 1916.97 358.38 2000.75 260.372" stroke="url(#paint24_linear_104_13757)" stroke-miterlimit="10"/>
<path d="M-402.942 138.438C-328.138 87.2854 -248.175 43.0597 -154.75 66.7921C-75.1064 86.9967 -11.8404 147.258 42.3876 205.595C124.819 294.271 207.475 458.986 345.193 452.861C449.386 448.243 502.493 369.092 556.913 291.192C623.737 195.492 704.405 105.758 826.771 88.3758C1048.97 56.786 1204.64 207.936 1377.51 315.758C1457.38 365.596 1558.72 424.703 1650.74 448.531C1799.89 487.145 1913.48 347.284 2000.78 248.505" stroke="url(#paint25_linear_104_13757)" stroke-miterlimit="10"/>
<path d="M-402.942 132.922C-330.19 82.5388 -251.924 37.351 -160.038 56.0483C-83.5355 71.6347 -21.3592 125.257 31.9394 179.104C115.525 263.515 193.341 415.113 326.764 409.18C427.977 404.69 488.839 338.047 550.759 266.241C624.954 180.227 710.591 98.5101 828.245 81.3843C1041.05 50.4038 1204.12 171.247 1379.02 267.395C1465.81 315.117 1557.09 373.453 1648.2 412.067C1794.89 474.252 1910.21 339.683 2000.75 241.514" stroke="url(#paint26_linear_104_13757)" stroke-miterlimit="10"/>
<path d="M-402.942 131.222C-249.873 22.6305 -117.476 23.1756 21.5233 151.94C106.872 230.995 179.4 366.686 308.143 362.068C406.055 358.54 474.129 304.533 543.132 241.129C624.442 166.436 714.02 94.1805 826.995 77.3754C1029.77 47.1967 1201.46 134.59 1377.93 217.493C1475.07 263.13 1553.66 320.376 1644.13 375.891C1787.01 463.54 1903.64 338.4 2000.81 238.179" stroke="url(#paint27_linear_104_13757)" stroke-miterlimit="10"/>
<path d="M-402.942 131.96C-260.482 27.5374 -129.366 7.26863 11.7161 123.493C99.3079 195.653 166.772 313.866 290.292 311.429C495.954 307.388 622.615 105.822 823.63 75.4192C1016.18 46.2989 1197.07 97.9329 1374.18 166.34C1482.44 208.16 1550.61 267.395 1638.43 339.651C1776.18 452.989 1893.26 342.12 2000.78 237.024" stroke="url(#paint28_linear_104_13757)" stroke-miterlimit="10"/>
<path d="M-402.942 133.756C-272.661 34.4005 -142.571 -7.67642 -0.270448 90.749C87.7059 151.587 152.222 253.252 265.902 257.165C470.315 264.252 622.422 104.026 818.598 73.3987C997.596 45.465 1188.9 60.9552 1361.58 112.782C1484.53 149.695 1547.31 216.819 1633.97 306.425C1666.34 339.907 1702.75 374.768 1751.37 380.028C1848.1 390.451 1938.57 294.527 2000.78 236.928" stroke="url(#paint29_linear_104_13757)" stroke-miterlimit="10"/>
<path d="M-402.942 135.231C-281.731 39.0829 -152.25 -22.0121 -6.77658 58.4857C83.2188 108.292 145.812 192.83 253.146 199.084C452.848 210.726 621.076 103.641 813.182 73.7835C985.513 47.0044 1180.79 24.6831 1352.9 61.6287C1485.3 90.0434 1544.84 169.29 1625.1 270.57C1655.83 309.376 1690.64 354.019 1741.44 366.205C1839.57 389.745 1936.39 292.988 2000.75 236.575" stroke="url(#paint30_linear_104_13757)" stroke-miterlimit="10"/>
<path d="M-402.942 134.975C-284.647 37.4794 -153.179 -37.9833 -0.879399 27.0563C82.1613 62.5267 143.953 127.534 236.352 136.578C434.932 156.045 615.5 103.225 809.4 74.7457C911.575 59.7365 1012.24 44.8557 1113.55 24.4265C1192.3 8.55147 1268.83 0.309258 1348.89 11.7906C1487.22 31.6104 1545.64 130.517 1617.37 238.275C1646.09 281.41 1680.61 334.969 1732.78 352.126C1832.78 385.031 1932.52 291.384 2000.78 234.523" stroke="url(#paint31_linear_104_13757)" stroke-miterlimit="10"/>
<path d="M-402.942 131.639C-289.006 34.7213 -157.474 -55.0771 -1.74476 -13.5453C80.8152 8.48733 147.446 59.7365 233.243 70.5765C428.971 95.271 610.308 100.883 805.875 73.6232C909.427 59.1913 1006.51 37.9283 1105.28 3.67669C1181.34 -22.6855 1254.31 -44.3013 1335.85 -38.5285C1481.03 -28.2659 1540 88.5682 1605.55 202.035C1633.46 250.366 1667.18 312.551 1721.28 336.059C1823.19 380.349 1928.22 287.279 2000.85 229.648" stroke="url(#paint32_linear_104_13757)" stroke-miterlimit="10"/>
<path d="M-402.942 123.846C-290.608 26.03 -159.589 -73.8707 -2.00113 -58.7333C82.61 -50.6193 160.042 -10.5949 244.044 1.78444C436.054 30.103 604.955 94.7257 802.189 70.6405C906.543 57.8763 1000.32 30.6161 1094.35 -16.0149C1165.18 -51.1325 1232.68 -86.667 1313.83 -87.6932C1471.58 -89.6175 1531.16 48.2551 1594.68 169.868C1622.12 222.4 1655.09 290.743 1710.99 318.901C1814.7 371.176 1924.06 279.101 2000.78 220.508" stroke="url(#paint33_linear_104_13757)" stroke-miterlimit="10"/>
<path d="M-402.942 110.216C-288.301 9.22491 -156.929 -97.1861 2.19737 -107.705C87.9943 -113.382 178.31 -87.8535 261.8 -70.5353C449.579 -31.6013 605.917 86.8364 805.33 65.2847C907.857 54.2203 998.397 20.8346 1084.35 -35.4818C1153.71 -80.9262 1217.26 -129.642 1303.38 -134.677C1464.56 -144.074 1523.59 16.056 1582.41 137.572C1610.35 195.268 1642.43 265.054 1700.06 299.21C1803.55 360.529 1922.87 263.643 2000.78 205.915" stroke="url(#paint34_linear_104_13757)" stroke-miterlimit="10"/>
<path d="M-402.942 89.3057C-206.766 -83.1071 -0.0141047 -216.041 267.056 -151.45C457.174 -105.46 603.609 73.3986 809.881 56.5293C914.395 47.9664 1002.44 5.98571 1081.95 -60.4971C1144.22 -112.548 1199.7 -169.634 1284.66 -178.839C1446.71 -196.381 1506.1 -32.371 1561.64 88.985C1591.96 155.211 1624.78 238.05 1690.57 277.497C1796.66 341.094 1919.86 243.374 2000.75 184.492" stroke="url(#paint35_linear_104_13757)" stroke-miterlimit="10"/>
<path d="M-402.942 60.891C-214.17 -100.489 28.6703 -278.996 292.759 -204.976C478.135 -153.022 618.192 44.8235 821.931 34.3684C923.817 29.1408 1010.38 -19.703 1082.3 -88.9119C1139.35 -143.785 1190.34 -205.682 1274.25 -214.982C1429.69 -232.269 1492.95 -70.375 1547.73 44.7273C1580.51 113.583 1614.87 197.866 1682.3 240.231C1790.28 308.061 1914.98 215.44 2000.75 155.66" stroke="url(#paint36_linear_104_13757)" stroke-miterlimit="10"/>
<path d="M-402.942 31.1934C-213.497 -123.324 35.2085 -293.941 295.131 -229.863C486.179 -182.783 637.518 13.5545 844.366 0.116779C938.112 -5.97668 1016.67 -51.5493 1082.5 -115.819C1135.02 -167.101 1181.08 -225.534 1257.77 -238.073C1410.75 -263.089 1486.32 -97.122 1545.68 12.9451C1579.78 76.1247 1616.76 149.342 1678.65 190.104C1786.88 261.398 1908.67 182.472 2000.78 123.141" stroke="url(#paint37_linear_104_13757)" stroke-miterlimit="10"/>
<path d="M-402.942 1.4959C-209.907 -147.569 50.9129 -312.413 308.913 -246.732C496.499 -198.979 657.068 -19.7671 859.494 -30.7674C945.804 -35.4497 1021.38 -81.4714 1081.73 -140.033C1130.09 -186.952 1173.13 -242.852 1242.62 -257.572C1393.18 -289.451 1479.78 -122.201 1545.36 -17.7787C1584.78 44.984 1625.99 114.065 1693.68 149.567C1800.79 205.723 1907.33 143.73 2000.78 88.2155" stroke="url(#paint38_linear_104_13757)" stroke-miterlimit="10"/>
<path d="M-402.942 -28.2017C-203.722 -172.617 63.4443 -324.28 321.188 -260.395C506.98 -214.341 674.375 -48.4064 873.692 -62.0365C953.976 -67.5206 1022.59 -107.898 1079.96 -161.873C1128.2 -207.253 1171.53 -262.575 1240.44 -275.308C1383.6 -301.798 1476.87 -144.747 1546.73 -47.4442C1586.83 8.39109 1629.33 65.3489 1690.45 99.1836C1796.79 158.002 1903.96 104.155 2000.78 51.3019" stroke="url(#paint39_linear_104_13757)" stroke-miterlimit="10"/>
<path d="M-402.942 -57.8993C-202.344 -193.078 56.4895 -323.574 308.015 -276.141C502.685 -239.42 678.605 -76.6287 883.05 -90.9644C960.578 -96.4164 1026.6 -135.992 1083.07 -186.856C1129.26 -228.484 1171.21 -276.462 1235.21 -288.553C1367.71 -313.6 1466.35 -178.325 1539.17 -89.9381C1586.83 -32.0502 1638.91 31.4821 1710.22 61.0835C1811.05 102.936 1910.31 58.2292 2000.81 12.881" stroke="url(#paint40_linear_104_13757)" stroke-miterlimit="10"/>
<path d="M-402.942 -87.597C-197.344 -214.79 66.8415 -331.496 316.028 -283.806C505.986 -247.438 690.56 -102.991 889.236 -117.647C1033.52 -128.295 1096.5 -269.824 1226.56 -298.495C1357.32 -327.294 1463.79 -199.845 1544.17 -117.359C1592.5 -67.7452 1642.95 -15.6301 1708.2 11.3095C1809.22 53.0015 1907.26 16.0239 2000.75 -26.6304" stroke="url(#paint41_linear_104_13757)" stroke-miterlimit="10"/>
<path d="M-402.942 -117.295C-191.927 -235.347 67.2582 -331.175 314.105 -291.439C505.601 -260.619 693.573 -129.674 891.864 -144.523C1028.07 -154.721 1100.89 -281.882 1226.62 -306.545C1349.21 -330.566 1454.69 -229.382 1538.88 -155.459C1590.87 -109.79 1644.36 -61.8761 1709.84 -36.5081C1810.12 2.36181 1906.04 -27.4641 2000.81 -66.6867" stroke="url(#paint42_linear_104_13757)" stroke-miterlimit="10"/>
<defs>
<linearGradient id="paint0_linear_104_13757" x1="798.92" y1="908.415" x2="798.92" y2="1146.54" gradientUnits="userSpaceOnUse">
<stop stop-color="#333333"/>
<stop offset="1" stop-color="#333333" stop-opacity="0"/>
</linearGradient>
<linearGradient id="paint1_linear_104_13757" x1="798.904" y1="849.473" x2="798.904" y2="1129.72" gradientUnits="userSpaceOnUse">
<stop stop-color="#333333"/>
<stop offset="1" stop-color="#333333" stop-opacity="0"/>
</linearGradient>
<linearGradient id="paint2_linear_104_13757" x1="798.92" y1="797.176" x2="798.92" y2="1114.52" gradientUnits="userSpaceOnUse">
<stop stop-color="#333333"/>
<stop offset="1" stop-color="#333333" stop-opacity="0"/>
</linearGradient>
<linearGradient id="paint3_linear_104_13757" x1="798.92" y1="745.08" x2="798.92" y2="1100.31" gradientUnits="userSpaceOnUse">
<stop stop-color="#333333"/>
<stop offset="1" stop-color="#333333" stop-opacity="0"/>
</linearGradient>
<linearGradient id="paint4_linear_104_13757" x1="798.92" y1="694.064" x2="798.92" y2="1086.6" gradientUnits="userSpaceOnUse">
<stop stop-color="#333333"/>
<stop offset="1" stop-color="#333333" stop-opacity="0"/>
</linearGradient>
<linearGradient id="paint5_linear_104_13757" x1="798.904" y1="647.487" x2="798.904" y2="1072.34" gradientUnits="userSpaceOnUse">
<stop stop-color="#333333"/>
<stop offset="1" stop-color="#333333" stop-opacity="0"/>
</linearGradient>
<linearGradient id="paint6_linear_104_13757" x1="798.92" y1="602.885" x2="798.92" y2="1057.69" gradientUnits="userSpaceOnUse">
<stop stop-color="#333333"/>
<stop offset="1" stop-color="#333333" stop-opacity="0"/>
</linearGradient>
<linearGradient id="paint7_linear_104_13757" x1="798.92" y1="560.157" x2="798.92" y2="1042.3" gradientUnits="userSpaceOnUse">
<stop stop-color="#333333"/>
<stop offset="1" stop-color="#333333" stop-opacity="0"/>
</linearGradient>
<linearGradient id="paint8_linear_104_13757" x1="798.936" y1="517.824" x2="798.936" y2="1025.4" gradientUnits="userSpaceOnUse">
<stop stop-color="#333333"/>
<stop offset="1" stop-color="#333333" stop-opacity="0"/>
</linearGradient>
<linearGradient id="paint9_linear_104_13757" x1="798.92" y1="488.26" x2="798.92" y2="993.622" gradientUnits="userSpaceOnUse">
<stop stop-color="#333333"/>
<stop offset="1" stop-color="#333333" stop-opacity="0"/>
</linearGradient>
<linearGradient id="paint10_linear_104_13757" x1="798.936" y1="468.345" x2="798.936" y2="952.335" gradientUnits="userSpaceOnUse">
<stop stop-color="#333333"/>
<stop offset="1" stop-color="#333333" stop-opacity="0"/>
</linearGradient>
<linearGradient id="paint11_linear_104_13757" x1="798.936" y1="448.587" x2="798.936" y2="915.591" gradientUnits="userSpaceOnUse">
<stop stop-color="#333333"/>
<stop offset="1" stop-color="#333333" stop-opacity="0"/>
</linearGradient>
<linearGradient id="paint12_linear_104_13757" x1="798.904" y1="425.544" x2="798.904" y2="883.275" gradientUnits="userSpaceOnUse">
<stop stop-color="#333333"/>
<stop offset="1" stop-color="#333333" stop-opacity="0"/>
</linearGradient>
<linearGradient id="paint13_linear_104_13757" x1="798.92" y1="402.884" x2="798.92" y2="855.421" gradientUnits="userSpaceOnUse">
<stop stop-color="#333333"/>
<stop offset="1" stop-color="#333333" stop-opacity="0"/>
</linearGradient>
<linearGradient id="paint14_linear_104_13757" x1="798.936" y1="377.305" x2="798.936" y2="830.676" gradientUnits="userSpaceOnUse">
<stop stop-color="#333333"/>
<stop offset="1" stop-color="#333333" stop-opacity="0"/>
</linearGradient>
<linearGradient id="paint15_linear_104_13757" x1="798.936" y1="351.206" x2="798.936" y2="810.636" gradientUnits="userSpaceOnUse">
<stop stop-color="#333333"/>
<stop offset="1" stop-color="#333333" stop-opacity="0"/>
</linearGradient>
<linearGradient id="paint16_linear_104_13757" x1="798.936" y1="323.376" x2="798.936" y2="792.357" gradientUnits="userSpaceOnUse">
<stop stop-color="#333333"/>
<stop offset="1" stop-color="#333333" stop-opacity="0"/>
</linearGradient>
<linearGradient id="paint17_linear_104_13757" x1="798.936" y1="291.934" x2="798.936" y2="773.671" gradientUnits="userSpaceOnUse">
<stop stop-color="#333333"/>
<stop offset="1" stop-color="#333333" stop-opacity="0"/>
</linearGradient>
<linearGradient id="paint18_linear_104_13757" x1="798.92" y1="258.299" x2="798.92" y2="751.567" gradientUnits="userSpaceOnUse">
<stop stop-color="#333333"/>
<stop offset="1" stop-color="#333333" stop-opacity="0"/>
</linearGradient>
<linearGradient id="paint19_linear_104_13757" x1="798.936" y1="226.277" x2="798.936" y2="721.882" gradientUnits="userSpaceOnUse">
<stop stop-color="#333333"/>
<stop offset="1" stop-color="#333333" stop-opacity="0"/>
</linearGradient>
<linearGradient id="paint20_linear_104_13757" x1="798.904" y1="194.375" x2="798.904" y2="683.196" gradientUnits="userSpaceOnUse">
<stop stop-color="#333333"/>
<stop offset="1" stop-color="#333333" stop-opacity="0"/>
</linearGradient>
<linearGradient id="paint21_linear_104_13757" x1="798.92" y1="153.97" x2="798.92" y2="631.693" gradientUnits="userSpaceOnUse">
<stop stop-color="#333333"/>
<stop offset="1" stop-color="#333333" stop-opacity="0"/>
</linearGradient>
<linearGradient id="paint22_linear_104_13757" x1="798.92" y1="108.25" x2="798.92" y2="563.214" gradientUnits="userSpaceOnUse">
<stop stop-color="#333333"/>
<stop offset="1" stop-color="#333333" stop-opacity="0"/>
</linearGradient>
<linearGradient id="paint23_linear_104_13757" x1="798.92" y1="87.124" x2="798.92" y2="529.396" gradientUnits="userSpaceOnUse">
<stop stop-color="#333333"/>
<stop offset="1" stop-color="#333333" stop-opacity="0"/>
</linearGradient>
<linearGradient id="paint24_linear_104_13757" x1="798.904" y1="71.4895" x2="798.904" y2="492.536" gradientUnits="userSpaceOnUse">
<stop stop-color="#333333"/>
<stop offset="1" stop-color="#333333" stop-opacity="0"/>
</linearGradient>
<linearGradient id="paint25_linear_104_13757" x1="798.92" y1="60.2057" x2="798.92" y2="455.107" gradientUnits="userSpaceOnUse">
<stop stop-color="#333333"/>
<stop offset="1" stop-color="#333333" stop-opacity="0"/>
</linearGradient>
<linearGradient id="paint26_linear_104_13757" x1="798.904" y1="51.7388" x2="798.904" y2="427.888" gradientUnits="userSpaceOnUse">
<stop stop-color="#333333"/>
<stop offset="1" stop-color="#333333" stop-opacity="0"/>
</linearGradient>
<linearGradient id="paint27_linear_104_13757" x1="798.936" y1="52.3938" x2="798.936" y2="405.518" gradientUnits="userSpaceOnUse">
<stop stop-color="#333333"/>
<stop offset="1" stop-color="#333333" stop-opacity="0"/>
</linearGradient>
<linearGradient id="paint28_linear_104_13757" x1="798.92" y1="44.6349" x2="798.92" y2="387.33" gradientUnits="userSpaceOnUse">
<stop stop-color="#333333"/>
<stop offset="1" stop-color="#333333" stop-opacity="0"/>
</linearGradient>
<linearGradient id="paint29_linear_104_13757" x1="798.92" y1="34.7502" x2="798.92" y2="380.812" gradientUnits="userSpaceOnUse">
<stop stop-color="#333333"/>
<stop offset="1" stop-color="#333333" stop-opacity="0"/>
</linearGradient>
<linearGradient id="paint30_linear_104_13757" x1="798.904" y1="21.2097" x2="798.904" y2="369.828" gradientUnits="userSpaceOnUse">
<stop stop-color="#333333"/>
<stop offset="1" stop-color="#333333" stop-opacity="0"/>
</linearGradient>
<linearGradient id="paint31_linear_104_13757" x1="798.92" y1="2.73706" x2="798.92" y2="358.957" gradientUnits="userSpaceOnUse">
<stop stop-color="#333333"/>
<stop offset="1" stop-color="#333333" stop-opacity="0"/>
</linearGradient>
<linearGradient id="paint32_linear_104_13757" x1="798.952" y1="-39.4695" x2="798.952" y2="347.633" gradientUnits="userSpaceOnUse">
<stop stop-color="#333333"/>
<stop offset="1" stop-color="#333333" stop-opacity="0"/>
</linearGradient>
<linearGradient id="paint33_linear_104_13757" x1="798.92" y1="-87.7131" x2="798.92" y2="334.386" gradientUnits="userSpaceOnUse">
<stop stop-color="#333333"/>
<stop offset="1" stop-color="#333333" stop-opacity="0"/>
</linearGradient>
<linearGradient id="paint34_linear_104_13757" x1="798.92" y1="-135.072" x2="798.92" y2="318.821" gradientUnits="userSpaceOnUse">
<stop stop-color="#333333"/>
<stop offset="1" stop-color="#333333" stop-opacity="0"/>
</linearGradient>
<linearGradient id="paint35_linear_104_13757" x1="798.904" y1="-180.136" x2="798.904" y2="298.213" gradientUnits="userSpaceOnUse">
<stop stop-color="#333333"/>
<stop offset="1" stop-color="#333333" stop-opacity="0"/>
</linearGradient>
<linearGradient id="paint36_linear_104_13757" x1="798.904" y1="-222.216" x2="798.904" y2="264.04" gradientUnits="userSpaceOnUse">
<stop stop-color="#333333"/>
<stop offset="1" stop-color="#333333" stop-opacity="0"/>
</linearGradient>
<linearGradient id="paint37_linear_104_13757" x1="798.92" y1="-243.704" x2="798.92" y2="218.389" gradientUnits="userSpaceOnUse">
<stop stop-color="#333333"/>
<stop offset="1" stop-color="#333333" stop-opacity="0"/>
</linearGradient>
<linearGradient id="paint38_linear_104_13757" x1="798.92" y1="-261.576" x2="798.92" y2="171.686" gradientUnits="userSpaceOnUse">
<stop stop-color="#333333"/>
<stop offset="1" stop-color="#333333" stop-opacity="0"/>
</linearGradient>
<linearGradient id="paint39_linear_104_13757" x1="798.92" y1="-278.274" x2="798.92" y2="124.789" gradientUnits="userSpaceOnUse">
<stop stop-color="#333333"/>
<stop offset="1" stop-color="#333333" stop-opacity="0"/>
</linearGradient>
<linearGradient id="paint40_linear_104_13757" x1="798.936" y1="-291.595" x2="798.936" y2="77.767" gradientUnits="userSpaceOnUse">
<stop stop-color="#333333"/>
<stop offset="1" stop-color="#333333" stop-opacity="0"/>
</linearGradient>
<linearGradient id="paint41_linear_104_13757" x1="798.904" y1="-302.65" x2="798.904" y2="29.5772" gradientUnits="userSpaceOnUse">
<stop stop-color="#333333"/>
<stop offset="1" stop-color="#333333" stop-opacity="0"/>
</linearGradient>
<linearGradient id="paint42_linear_104_13757" x1="798.936" y1="-310.149" x2="798.936" y2="-18.3388" gradientUnits="userSpaceOnUse">
<stop stop-color="#333333"/>
<stop offset="1" stop-color="#333333" stop-opacity="0"/>
</linearGradient>
</defs>
</svg>
