<svg width="1919" height="63" viewBox="0 0 1919 63" fill="none" xmlns="http://www.w3.org/2000/svg">
<g style="mix-blend-mode:color-dodge">
<path d="M0.330566 256.582C62.3774 211.964 130.844 183.966 206.446 211.146C273.761 235.359 326.089 291.611 377.829 338.479C436.142 391.304 509.8 485.091 599.316 466.656C649.7 456.275 694.023 417.717 731.67 384.887C814.766 312.399 887.606 228.43 962.313 147.658C1032.24 72.0252 1109.73 17.6146 1174.95 122.882C1218.86 193.733 1252.96 305.802 1352.55 309.739C1440.94 313.242 1507.36 242.672 1587.03 216.643C1709.23 176.73 1833.19 294.04 1918.54 362.948" stroke="#666666" stroke-miterlimit="10"/>
<path d="M0.330566 231.984C64.0143 182.381 134.962 149.448 215.397 178.034C283.276 202.146 339.491 257.119 389.671 306.543C441.845 357.962 511.872 458.96 597.295 441.726C645.096 432.087 687.143 393.452 722.386 362.105C802.976 290.384 874.946 208.614 947.76 129.274C1014.44 56.6328 1092.75 -9.59073 1158.89 95.1907C1202.16 163.741 1235.03 273.15 1332.75 274.506C1420.37 275.707 1493.45 212.117 1575.26 190.333C1702.6 156.403 1827.06 267.627 1918.51 338.684" stroke="#666666" stroke-miterlimit="10"/>
<path d="M0.330566 204.574C70.5873 149.32 145.55 119.609 231.433 157.962C302.457 189.693 364.658 249.729 419.62 302.887C468.93 350.599 530.031 431.115 607.781 406.032C655.224 390.716 696.478 349.806 731.875 316.924C802.822 251.033 868.756 179.67 935.688 109.765C999.474 43.1067 1076.87 -21.736 1145.44 71.207C1194.21 137.328 1225.26 243.081 1322.62 247.914C1409.35 252.209 1493.21 195.012 1576.82 179.67C1703.27 156.454 1820.87 243.593 1918.54 310.737" stroke="#666666" stroke-miterlimit="10"/>
<path d="M0.330566 174.122C75.8814 116.49 152.865 91.1509 241.127 136.664C308.749 171.514 371.154 227.638 426.781 278.852C478.623 326.59 542.282 408.845 620.62 372.435C661.516 353.437 695.174 317.257 727.297 286.651C794.868 222.217 858.782 153.897 924.767 87.8781C993.029 19.5835 1070.37 -33.3697 1141.19 57.4255C1189.94 119.942 1225.05 218.356 1317.48 222.447C1402.52 226.232 1487 185.5 1569.99 171.949C1698.1 151.033 1811.84 216.336 1918.54 279.261" stroke="#666666" stroke-miterlimit="10"/>
<path d="M0.330566 141.189C87.4673 78.3408 170.589 64.1244 263.378 122.601C330.054 164.61 391.691 221.527 451.36 272.844C501.181 315.697 557.218 382.969 626.937 344.002C664.278 323.138 695.353 285.935 725.097 255.84C788.423 191.739 850.086 126.078 915.253 63.8176C982.773 -0.692762 1060.06 -47.2538 1131.93 34.26C1185.59 95.114 1222.75 192.174 1314.95 200.969C1396.21 208.717 1484.75 176.96 1564.67 164.585C1692.4 144.82 1804.78 189.949 1918.49 245.05" stroke="#666666" stroke-miterlimit="10"/>
<path d="M0.330566 106.39C94.7308 42.9022 181.535 36.1009 276.14 102.529C347.522 152.644 411.666 215.978 479.544 270.9C526.22 308.64 577.857 360.391 636.196 317.027C674.764 288.364 706.248 245.178 738.269 209.995C792.413 150.547 847.912 91.8922 907.478 37.8395C980.471 -28.4095 1059.63 -59.7059 1133.13 20.1459C1186.94 78.5964 1228.17 169.826 1316.59 179.721C1400.27 189.08 1490.76 167.116 1573.65 155.738C1695.54 139.016 1804.04 166.247 1918.51 208.614" stroke="#666666" stroke-miterlimit="10"/>
<path d="M0.330566 70.261C107.953 2.98918 199.438 10.1485 298.237 89.0031C373.2 148.834 437.088 218.458 515.222 274.915C568.829 313.626 607.474 335.487 656.401 281.537C739.548 189.847 806.889 85.3467 904.307 6.2876C975.817 -51.7283 1054.49 -73.3596 1125.74 -5.83208C1185.95 51.2122 1226.46 138.786 1313.37 159.343C1393.6 178.29 1494.29 159.599 1574.96 148.604C1694.01 132.368 1801.45 141.905 1918.54 170.747" stroke="#666666" stroke-miterlimit="10"/>
<path d="M0.330566 33.4161C120.844 -36.8728 218.978 -14.0398 320.591 75.9372C393.379 140.396 453.917 215.032 536.527 267.985C597.167 306.876 629.086 313.754 670.57 251.826C736.3 153.718 802.464 53.4366 898.22 -18.9235C975.638 -77.4507 1054.08 -90.5931 1129.73 -23.1168C1192.73 33.0837 1237.56 123.495 1326.64 143.388C1405.64 161.031 1497.84 152.644 1577.49 141.803C1693.12 126.052 1801.74 118.944 1918.54 131.959" stroke="#666666" stroke-miterlimit="10"/>
<path d="M0.330566 -3.55645C131.688 -76.0443 234.451 -40.3245 338.57 58.8573C412.254 129.044 472.997 214.777 563.714 264.534C631.055 301.481 654.687 282.279 686.81 218.944C737.911 118.228 802.541 16.4384 897.197 -49.1714C977.326 -104.733 1058.38 -106.446 1133.64 -42.6002C1199.3 13.1145 1247.12 101.174 1335.08 125.873C1523.73 178.852 1729.02 99.6653 1918.54 93.0941" stroke="#666666" stroke-miterlimit="10"/>
<path d="M0.330566 -40.0944C65.6767 -74.8937 127.11 -95.5534 200.231 -70.2146C260.718 -49.248 310.258 -5.24394 354.632 39.5784C427.83 113.575 490.414 213.14 587.934 257.119C661.081 290.103 678.396 245.664 703.077 183.659C743.307 82.5086 804.05 -21.1223 898.961 -80.3399C1105.82 -209.437 1180.47 51.7748 1345.05 108.41C1537.26 174.557 1730.58 91.0997 1918.54 54.7152" stroke="#666666" stroke-miterlimit="10"/>
<path d="M0.330566 -75.6096C68.49 -111.662 131.304 -131.759 205.755 -104.375C268.211 -81.4137 318.698 -34.4948 363.942 13.0378C435.093 87.7758 508.675 217.155 614.814 246.917C689.112 267.755 700.826 198.259 719.65 142.314C752.591 44.3854 809.369 -63.5922 904.358 -115.395C1101.55 -222.938 1200.86 18.8675 1349.73 87.2133C1545.06 176.883 1734.19 84.9376 1918.51 17.4868" stroke="#666666" stroke-miterlimit="10"/>
<path d="M0.330566 -109.489C69.155 -146.921 131.151 -167.249 206.906 -140.734C269.72 -118.744 321.051 -69.6777 365.706 -21.8638C438.162 55.7378 515.836 203.143 628.497 225.132C705.071 240.09 715.813 163.613 732.54 106.185C761.261 7.66828 812.976 -101.383 912.235 -147.203C1109.71 -238.356 1216.2 -6.21567 1361.86 68.8547C1437.69 107.924 1535.88 127.944 1620.35 114.342C1727.44 97.1084 1825.37 33.6719 1918.54 -17.7984" stroke="#666666" stroke-miterlimit="10"/>
<path d="M0.330566 -141.194C73.6308 -183.562 144.476 -207.98 225.628 -171.365C286.524 -143.879 334.836 -93.3544 378.494 -44.3132C443.917 29.1719 526.373 183.992 636.426 195.6C719.266 204.345 729.726 113.907 747.476 52.8486C774.919 -41.5262 824.331 -142.702 923.796 -179.113C1119.78 -250.884 1233.11 -35.6709 1374.52 48.4253C1445.98 90.9208 1539.38 120.018 1622.96 109.612C1734.93 95.651 1831.84 14.6487 1918.49 -50.6799" stroke="#666666" stroke-miterlimit="10"/>
<path d="M0.330566 -170.112C69.5386 -214.193 137.673 -244.876 219.438 -211.866C284.964 -185.403 337.138 -129.228 382.151 -76.7347C446.5 -1.68988 527.422 152.388 641.746 155.099C723.256 157.016 738.346 65.2751 757.579 4.01199C787.323 -90.6441 834.357 -182.462 938.681 -209.233C1138.45 -260.524 1249.38 -63.7456 1392.32 30.6548C1462.29 76.8834 1555.62 115.007 1640.86 102.708C1752.35 86.5996 1841.92 -6.03661 1918.51 -80.3399" stroke="#666666" stroke-miterlimit="10"/>
<path d="M0.330566 -195.656C63.8608 -241.705 129.846 -280.289 210.64 -253.237C273.608 -232.168 323.199 -180.57 365.578 -131.631C434.991 -51.4982 504.813 91.0485 624.303 100.151C715.148 107.055 738.755 18.7908 764.893 -51.0379C800.546 -146.308 850.24 -226.978 959.423 -241.731C1152.98 -267.888 1264.52 -101.511 1398.99 3.2193C1466.41 55.7123 1557.69 105.981 1645.9 97.3896C1762.91 85.9859 1849.03 -22.7843 1918.51 -106.165" stroke="#666666" stroke-miterlimit="10"/>
<path d="M0.330566 -215.804C63.5539 -259.91 128.747 -296.218 207.929 -270.445C269.592 -250.373 318.672 -201.051 360.54 -153.595C427.983 -77.1949 499.365 69.4684 615.428 73.4827C705.174 76.5766 735.89 -2.89166 768.065 -72.7459C809.318 -162.263 865.15 -244.211 971.034 -258.504C1157.81 -283.715 1274.49 -128.282 1407.05 -28.8697C1472.09 19.8903 1563.83 69.4939 1647.36 67.8575C1764.14 65.5563 1850.64 -45.4894 1918.51 -126.543" stroke="#666666" stroke-miterlimit="10"/>
<path d="M0.330566 -229.586C62.5565 -272.158 126.803 -307.469 204.425 -283.996C264.401 -265.868 312.764 -219.69 353.967 -174.485C420.336 -101.639 491.411 43.4904 603.715 44.1808C691.772 44.7177 729.266 -25.3411 767.707 -93.5846C814.664 -176.939 876.301 -256.919 978.425 -270.931C1158.45 -295.605 1280.07 -156.203 1412.7 -63.4132C1477.1 -18.3608 1567.85 31.9077 1647.54 39.0158C1763.73 49.3713 1851.63 -62.774 1918.49 -140.913" stroke="#666666" stroke-miterlimit="10"/>
<path d="M0.330566 -238.126C60.0245 -278.908 123.836 -314.168 198.389 -295.247C261.945 -279.138 312.432 -231.094 355.706 -184.584C421.487 -113.886 487.447 17.4356 597.346 12.5519C680.493 8.86998 722.872 -54.2341 766.3 -116.341C819.625 -192.639 884 -264.18 981.648 -278.039C1158.96 -303.224 1283.19 -182.718 1421.14 -96.7552C1484.88 -57.0211 1565.75 -9.89758 1639.18 9.10013C1758.21 39.8851 1848.85 -71.621 1918.51 -150.373" stroke="#666666" stroke-miterlimit="10"/>
<path d="M0.330566 -242.524C58.3876 -282.692 120.844 -318.719 194.169 -303.812C255.219 -291.386 304.836 -248.635 347.368 -205.704C414.07 -138.407 476.168 -17.5426 582.64 -22.2729C663.408 -25.8525 711.977 -78.9847 761.389 -136.234C820.597 -204.809 888.936 -269.959 982.825 -283.613C1152.65 -308.312 1282.78 -211.969 1422.34 -135.313C1491.6 -97.2665 1564.44 -50.7566 1637.16 -19.9717C1754.22 29.6065 1846.24 -77.6807 1918.49 -155.947" stroke="#666666" stroke-miterlimit="10"/>
</g>
</svg>
