<svg width="34" height="34" viewBox="0 0 34 34" fill="none" xmlns="http://www.w3.org/2000/svg">
<path d="M16.5751 3.97416C16.8463 3.85566 17.1546 3.85566 17.4259 3.97416C22.6942 6.27599 27.6873 9.08986 32.3422 12.3527C32.6791 12.5888 32.8494 12.9982 32.7793 13.4036C32.7093 13.809 32.4116 14.1375 32.015 14.247C31.0447 14.5148 30.0828 14.8032 29.1296 15.1107C25.2606 16.3584 21.5362 17.9284 17.988 19.7891L17.9834 19.7915C17.8225 19.8759 17.662 19.9609 17.5018 20.0464C17.189 20.2136 16.8133 20.2136 16.5004 20.0464C16.3387 19.9601 16.1767 19.8743 16.0142 19.7891C14.2598 18.8691 12.4622 18.0201 10.6254 17.246V16.9291C10.6254 16.743 10.7209 16.5779 10.8687 16.4884C13.0009 15.1966 15.2003 14.0047 17.4604 12.9191C17.9893 12.665 18.2122 12.0303 17.9581 11.5013C17.704 10.9724 17.0693 10.7495 16.5403 11.0036C14.2181 12.1191 11.9582 13.3437 9.76757 14.6709C9.12528 15.06 8.69349 15.6969 8.55147 16.4103C7.34033 15.9445 6.11327 15.5105 4.87128 15.11C3.91811 14.8026 2.95615 14.5148 1.98589 14.2469C1.58933 14.1375 1.2916 13.8089 1.22159 13.4036C1.15158 12.9982 1.32187 12.5888 1.65873 12.3527C6.31367 9.08984 11.3067 6.27599 16.5751 3.97416Z" fill="#A685FA"/>
<path d="M18.5033 21.9207C21.9583 20.0746 25.5883 18.514 29.3619 17.27C29.5521 19.2743 29.6735 21.2985 29.7238 23.3403C29.7346 23.7783 29.4754 24.1781 29.071 24.3469C25.0319 26.0333 21.19 28.0982 17.5896 30.4975C17.2328 30.7353 16.768 30.7353 16.4112 30.4975C12.8108 28.0982 8.9689 26.0333 4.92979 24.3469C4.52543 24.1781 4.26618 23.7783 4.27697 23.3403C4.32728 21.2984 4.44871 19.274 4.63892 17.2695C5.94367 17.6996 7.23125 18.1676 8.50037 18.6721V20.4718C7.8652 20.8392 7.43787 21.5259 7.43787 22.3125C7.43787 23.0142 7.77798 23.6365 8.30234 24.0234C8.17553 24.5627 7.98785 25.0903 7.73929 25.5956C8.38061 25.8983 9.01644 26.2107 9.64659 26.5327C10.0055 25.8027 10.2657 25.0366 10.4272 24.2543C11.1701 23.9232 11.6879 23.1783 11.6879 22.3125C11.6879 21.5259 11.2605 20.8392 10.6254 20.4718V19.5584C12.2848 20.2834 13.9104 21.0719 15.499 21.9207C16.4376 22.4222 17.5646 22.4222 18.5033 21.9207Z" fill="#A685FA"/>
<path d="M6.32185 27.5716C6.91562 26.9778 7.38831 26.309 7.73929 25.5956C8.38061 25.8983 9.01644 26.2107 9.64659 26.5327C9.19531 27.4505 8.58769 28.3109 7.82445 29.0742C7.40952 29.4891 6.73678 29.4891 6.32185 29.0742C5.90692 28.6593 5.90692 27.9865 6.32185 27.5716Z" fill="#A685FA"/>
</svg>
